<?xml version="1.0" encoding="iso-8859-1"?>
<!-- Generator: Adobe Illustrator 19.0.0, SVG Export Plug-In . SVG Version: 6.00 Build 0)  -->
<svg version="1.1" id="Capa_1" xmlns="http://www.w3.org/2000/svg" xmlns:xlink="http://www.w3.org/1999/xlink" x="0px" y="0px"
	 viewBox="0 0 512.007 512.007" style="enable-background:new 0 0 512.007 512.007;" xml:space="preserve">
<g>
	<g>
		<g>
			<rect x="53.337" y="85.34" width="106.667" height="21.333"/>
			<rect x="53.337" y="128.007" width="170.667" height="21.333"/>
			<rect x="53.337" y="170.673" width="106.667" height="21.333"/>
			<rect x="53.337" y="213.34" width="170.667" height="21.333"/>
			<rect x="53.337" y="256.007" width="106.667" height="21.333"/>
			<rect x="53.337" y="298.673" width="170.667" height="21.333"/>
			<rect x="53.337" y="341.34" width="106.667" height="21.333"/>
			<rect x="53.337" y="384.007" width="170.667" height="21.333"/>
			<path d="M384.003,245.34c11.782,0,21.333,9.551,21.333,21.333h21.333c0-19.881-13.598-36.586-32-41.322V213.34h-21.333v12.011
				c-18.402,4.736-32,21.441-32,41.322c0,23.564,19.102,42.667,42.667,42.667c11.782,0,21.333,9.551,21.333,21.333
				c0,11.782-9.551,21.333-21.333,21.333c-11.782,0-21.333-9.551-21.333-21.333h-21.333c0,19.881,13.598,36.586,32,41.322v12.011
				h21.333v-12.011c18.402-4.737,32-21.441,32-41.322c0-23.564-19.102-42.667-42.667-42.667c-11.782,0-21.333-9.551-21.333-21.333
				C362.67,254.891,372.221,245.34,384.003,245.34z"/>
			<path d="M384.003,170.673c-44.526,0-83.736,22.74-106.667,57.235v-57.235h-21.333v256h21.333v-57.235
				c22.931,34.495,62.14,57.235,106.667,57.235c70.661-0.076,127.924-57.339,128-128
				C512.003,227.981,454.696,170.673,384.003,170.673z M384.003,405.34c-58.91,0-106.667-47.756-106.667-106.667
				s47.756-106.667,106.667-106.667c58.884,0.065,106.602,47.783,106.667,106.667C490.67,357.584,442.914,405.34,384.003,405.34z"/>
			<path d="M394.67,458.673h-53.333V437.34h-21.333v21.333H74.67c-5.891,0-10.667,4.776-10.667,10.667
				c0,11.782-9.551,21.333-21.333,21.333c-11.782,0-21.333-9.551-21.333-21.333V26.428l38.709,15.488
				c2.543,1.003,5.372,1.003,7.915,0l49.376-19.755l49.376,19.755c2.543,1.003,5.372,1.003,7.915,0l49.376-19.755l49.376,19.755
				c2.543,1.003,5.372,1.003,7.915,0l38.709-15.488v133.579h21.333V10.673c0-1.357-0.258-2.701-0.761-3.961
				c-2.186-5.471-8.392-8.134-13.863-5.948l-49.376,19.755L227.961,0.764c-2.543-1.003-5.372-1.003-7.915,0L170.67,20.519
				L121.294,0.764c-2.543-1.003-5.372-1.003-7.915,0L64.003,20.519L14.627,0.764c-1.26-0.503-2.604-0.762-3.961-0.761
				C4.775,0.005,0.001,4.782,0.003,10.673V469.34c0,23.564,19.103,42.667,42.667,42.667h320c23.564,0,42.667-19.103,42.667-42.667
				C405.337,463.449,400.561,458.673,394.67,458.673z M362.67,490.673H79.609c1.94-3.338,3.411-6.928,4.373-10.667h297.152
				C377.325,486.604,370.288,490.669,362.67,490.673z"/>
		</g>
	</g>
</g>
<g>
</g>
<g>
</g>
<g>
</g>
<g>
</g>
<g>
</g>
<g>
</g>
<g>
</g>
<g>
</g>
<g>
</g>
<g>
</g>
<g>
</g>
<g>
</g>
<g>
</g>
<g>
</g>
<g>
</g>
</svg>
